<?xml version="1.0" encoding="UTF-8" standalone="no"?>
<!-- Created with Inkscape (http://www.inkscape.org/) -->

<svg
   xmlns:dc="http://purl.org/dc/elements/1.1/"
   xmlns:cc="http://creativecommons.org/ns#"
   xmlns:rdf="http://www.w3.org/1999/02/22-rdf-syntax-ns#"
   xmlns:svg="http://www.w3.org/2000/svg"
   xmlns="http://www.w3.org/2000/svg"
   xmlns:sodipodi="http://sodipodi.sourceforge.net/DTD/sodipodi-0.dtd"
   xmlns:inkscape="http://www.inkscape.org/namespaces/inkscape"
   width="165"
   height="382"
   viewBox="0 0 164.99999 382"
   id="svg2"
   version="1.1"
   inkscape:version="0.91 r13725"
   sodipodi:docname="corsa.svg">
  <defs
     id="defs4" />
  <sodipodi:namedview
     id="base"
     pagecolor="#ffffff"
     bordercolor="#666666"
     borderopacity="1.0"
     inkscape:pageopacity="0.0"
     inkscape:pageshadow="2"
     inkscape:zoom="1.979899"
     inkscape:cx="11.846557"
     inkscape:cy="131.26479"
     inkscape:document-units="px"
     inkscape:current-layer="layer1"
     showgrid="false"
     inkscape:snap-text-baseline="false"
     inkscape:window-width="1920"
     inkscape:window-height="1053"
     inkscape:window-x="0"
     inkscape:window-y="27"
     inkscape:window-maximized="1"
     units="px"
     inkscape:snap-page="true"
     inkscape:snap-bbox="true"
     inkscape:bbox-nodes="true" />
  <metadata
     id="metadata7">
    <rdf:RDF>
      <cc:Work
         rdf:about="">
        <dc:format>image/svg+xml</dc:format>
        <dc:type
           rdf:resource="http://purl.org/dc/dcmitype/StillImage" />
        <dc:title></dc:title>
      </cc:Work>
    </rdf:RDF>
  </metadata>
  <g
     inkscape:label="Layer 1"
     inkscape:groupmode="layer"
     id="layer1"
     transform="translate(0,-670.36212)">
    <g
       id="g4225"
       transform="matrix(1.8923906,0,0,1.8661031,-527.45722,-191.94358)">
      <path
         sodipodi:nodetypes="sssscccscccs"
         inkscape:connector-curvature="0"
         id="path3347"
         d="m 365.91269,502.51486 c 0.0999,-12.4667 -1.65587,-27.98159 -10.08398,-33.9668 -8.96077,-6.36346 -28.62168,-6.35398 -33.50782,-6.44335 -5.42111,-0.0992 -24.54704,0.0799 -33.50781,6.44335 -14.98331,10.64036 -8.87806,51.39729 -8.75,51.60743 -1.4473,38.99281 -1.12613,72.84792 -0.35742,111.60742 0.0121,0.01 -1.99316,18.25191 2.24805,24.85156 6.96098,10.12822 27.43697,10.14138 40.48437,10.17774 16.00313,0.0446 34.64303,-0.90103 40.25,-10.17774 4.24121,-6.59965 2.23595,-24.84156 2.24805,-24.85156 0.76871,-38.7595 1.08988,-72.61461 -0.35742,-111.60742 0.056,-0.0919 1.2563,-7.9443 1.33398,-17.64063 z"
         style="fill:#929292;fill-opacity:1;fill-rule:evenodd;stroke:none;stroke-width:0.2;stroke-linecap:butt;stroke-linejoin:miter;stroke-miterlimit:4;stroke-dasharray:none;stroke-opacity:1" />
      <path
         sodipodi:nodetypes="ccc"
         inkscape:connector-curvature="0"
         id="path4152"
         d="m 339.93581,465.87033 c 6.76203,12.2972 12.62766,14.01824 18.03572,15.53571 -0.48546,-8.0365 -6.11956,-14.7837 -18.03572,-15.53571 z"
         style="fill:#ebebeb;fill-opacity:1;fill-rule:evenodd;stroke:none;stroke-width:0.2;stroke-linecap:butt;stroke-linejoin:miter;stroke-miterlimit:4;stroke-dasharray:none;stroke-opacity:1" />
      <path
         style="fill:#ebebeb;fill-opacity:1;fill-rule:evenodd;stroke:none;stroke-width:0.2;stroke-linecap:butt;stroke-linejoin:miter;stroke-miterlimit:4;stroke-dasharray:none;stroke-opacity:1"
         d="m 304.51166,465.87033 c -6.76203,12.2972 -12.62766,14.01824 -18.03572,15.53571 0.48546,-8.0365 6.11956,-14.7837 18.03572,-15.53571 z"
         id="path4192"
         inkscape:connector-curvature="0"
         sodipodi:nodetypes="ccc" />
      <path
         sodipodi:nodetypes="ccccc"
         inkscape:connector-curvature="0"
         id="path4194"
         d="m 357.34653,525.95962 c 2.3486,0.21826 -5.0653,31.26101 -6.96429,31.25 -21.33437,-5.98758 -38.8494,-3.53369 -55.71429,0.35714 -2.47024,-0.89286 -8.62644,-27.65332 -7.67857,-31.875 14.29401,-12.72088 57.95801,-13.46696 70.35715,0.26786 z"
         style="fill:#ebebeb;fill-opacity:1;fill-rule:evenodd;stroke:none;stroke-width:0.2;stroke-linecap:butt;stroke-linejoin:miter;stroke-miterlimit:4;stroke-dasharray:none;stroke-opacity:1" />
      <path
         sodipodi:nodetypes="ccccccccc"
         inkscape:connector-curvature="0"
         id="path4196"
         d="m 349.83043,638.54207 c -0.79995,0.93434 -2.14816,1.75903 -3.78807,2.52538 l 1.13642,3.03046 c -14.23064,3.85974 -33.11622,2.94705 -49.3712,0.37881 l 0.88388,-3.59867 c -1.91302,-0.32286 -2.57076,-1.36303 -3.34613,-2.33598 -3.19103,6.23151 -5.40986,13.07065 -7.26047,20.13992 14.30582,7.27794 58.13395,7.11191 68.1853,-0.25254 -0.44321,-6.38579 -3.78019,-13.18497 -6.43973,-19.88738 z"
         style="fill:#ebebeb;fill-opacity:1;fill-rule:evenodd;stroke:none;stroke-width:0.2;stroke-linecap:butt;stroke-linejoin:miter;stroke-miterlimit:4;stroke-dasharray:none;stroke-opacity:1" />
      <path
         sodipodi:nodetypes="ccccc"
         inkscape:connector-curvature="0"
         id="path4198"
         d="m 361.36438,540.69176 c 1.01281,14.00836 0.35497,36.12792 0.71429,49.46429 -2.56099,1.64716 -5.32984,1.87673 -7.7318,2.41071 -1.50501,-30.44798 0.88246,-31.73908 3.9818,-48.92857 0.78596,-1.20809 1.6614,-2.3267 3.03571,-2.94643 z"
         style="fill:#ebebeb;fill-opacity:1;fill-rule:evenodd;stroke:none;stroke-width:0.2;stroke-linecap:butt;stroke-linejoin:miter;stroke-miterlimit:4;stroke-dasharray:none;stroke-opacity:1" />
      <path
         sodipodi:nodetypes="cccc"
         inkscape:connector-curvature="0"
         id="path4200"
         d="m 361.63659,598.32537 c -1.0726,-0.53638 -7.06612,-0.68699 -8.14435,-0.0631 -0.66988,35.90975 0.97855,35.43987 6.43972,41.85819 1.18005,-12.18015 1.42599,-28.13863 1.70463,-41.79509 z"
         style="fill:#ebebeb;fill-opacity:1;fill-rule:evenodd;stroke:none;stroke-width:0.2;stroke-linecap:butt;stroke-linejoin:miter;stroke-miterlimit:4;stroke-dasharray:none;stroke-opacity:1" />
      <path
         style="fill:#ebebeb;fill-opacity:1;fill-rule:evenodd;stroke:none;stroke-width:0.2;stroke-linecap:butt;stroke-linejoin:miter;stroke-miterlimit:4;stroke-dasharray:none;stroke-opacity:1"
         d="m 283.73495,540.9443 c -1.01281,14.00836 -0.35497,36.12792 -0.71429,49.46429 2.56099,1.64716 5.32984,1.87673 7.7318,2.41071 1.50501,-30.44798 -0.88246,-31.73908 -3.9818,-48.92857 -0.78596,-1.20809 -1.6614,-2.3267 -3.03571,-2.94643 z"
         id="path4202"
         inkscape:connector-curvature="0"
         sodipodi:nodetypes="ccccc" />
      <path
         style="fill:#ebebeb;fill-opacity:1;fill-rule:evenodd;stroke:none;stroke-width:0.2;stroke-linecap:butt;stroke-linejoin:miter;stroke-miterlimit:4;stroke-dasharray:none;stroke-opacity:1"
         d="m 283.46274,598.57791 c 1.0726,-0.53638 7.06612,-0.68699 8.14435,-0.0631 0.66988,35.90975 -0.97855,35.43987 -6.43972,41.85819 -1.18005,-12.18015 -1.42599,-28.13863 -1.70463,-41.79509 z"
         id="path4204"
         inkscape:connector-curvature="0"
         sodipodi:nodetypes="cccc" />
    </g>
  </g>
</svg>
